<svg width="118" height="28" viewBox="0 0 118 28" fill="none" xmlns="http://www.w3.org/2000/svg">
<g clip-path="url(#clip0_274_1097)">
<path d="M22.5082 26.5C21.5741 26.5 20.6844 26.1552 20.0395 25.5087C19.3722 24.8621 19.0164 24.0216 19.0164 23.1164C19.0164 22.2112 19.3722 21.3707 20.0395 20.7242C20.7067 20.0776 21.5741 19.7328 22.5082 19.7328C23.4424 19.7328 24.3098 20.0776 24.977 20.7242C26.3337 22.0388 26.3337 24.194 24.977 25.5087C24.3098 26.1552 23.4424 26.5 22.5082 26.5Z" fill="url(#paint0_linear_274_1097)"/>
<path d="M13.0334 26.5C12.0992 26.5 11.2096 26.1552 10.5646 25.5086C9.89736 24.8621 9.5415 24.0215 9.5415 23.1164C9.5415 22.2112 9.89736 21.3707 10.5646 20.7241C10.698 20.5948 10.8537 20.4655 11.0539 20.3362C11.0984 20.2931 11.1651 20.2715 11.2096 20.2284C11.343 20.1638 11.4542 20.0991 11.5877 20.0345C11.6544 20.0129 11.7211 19.9698 11.7879 19.9483C11.9213 19.9052 12.0548 19.8621 12.2105 19.819L12.3439 19.7759L13.1446 19.7112C13.2335 19.7112 13.3448 19.7328 13.4337 19.7328H13.5004C13.5449 19.7328 13.5672 19.7328 13.6116 19.7328C13.6339 19.7328 13.6339 19.7328 13.6561 19.7328H13.6784H13.7006C13.7673 19.7328 13.8118 19.7328 13.8785 19.7328C15.213 19.7328 16.5475 19.1724 17.5039 18.2241C18.4602 17.2543 18.994 15.9612 18.9718 14.6681V14.5172L18.9495 14.4957V14.4741C18.9495 14.431 18.9495 14.4095 18.9495 14.3664L18.9273 14.2586C18.9273 14.194 18.9051 14.1293 18.9051 14.0862L18.9495 13.3534C18.9495 13.3319 18.9718 13.2457 18.994 13.2241C19.0385 13.0517 19.083 12.9224 19.1275 12.8146C19.1497 12.75 19.172 12.6853 19.2164 12.6207C19.2832 12.5129 19.3276 12.3836 19.4166 12.2543L19.4389 12.2328C19.4611 12.1896 19.4833 12.1465 19.5278 12.1034C19.6613 11.9095 19.7947 11.7586 19.9282 11.6293C20.5954 10.9828 21.4628 10.6379 22.3969 10.6379C23.3311 10.6379 24.1985 10.9828 24.8657 11.6293C26.2224 12.944 26.2224 15.0991 24.8657 16.4138C24.7323 16.5431 24.5766 16.6724 24.3764 16.8017C24.3319 16.8233 24.3097 16.8448 24.2652 16.8664L24.1985 16.9095C24.0873 16.9741 23.9538 17.0388 23.8204 17.1034C23.7537 17.125 23.6869 17.1681 23.6202 17.1897C23.4868 17.2328 23.3533 17.2759 23.1976 17.319C23.1531 17.319 23.1309 17.3405 23.1087 17.3405C23.0864 17.3405 23.0642 17.3405 23.0642 17.3621L22.2857 17.4052C22.1745 17.4052 22.0411 17.3836 21.9299 17.3621C21.8854 17.3621 21.8631 17.3621 21.8187 17.3621C21.7964 17.3621 21.7964 17.3621 21.7742 17.3621H21.7075C21.6407 17.3621 21.5963 17.3621 21.5295 17.3621C20.1951 17.3621 18.8606 17.9224 17.9042 18.8707C16.9478 19.8405 16.414 21.1336 16.4585 22.4267V22.4698V22.5129C16.4585 22.556 16.4585 22.5991 16.4808 22.6207C16.4808 22.6638 16.4808 22.7069 16.4808 22.7284C16.4808 22.75 16.4808 22.7931 16.503 22.8362C16.503 22.9009 16.5253 22.944 16.5253 23.0086L16.4585 23.7629C16.4585 23.7845 16.414 23.8707 16.414 23.8707C16.3696 24.0215 16.3251 24.1724 16.2806 24.3017C16.2584 24.3664 16.2361 24.431 16.1916 24.4741V24.4957C16.1249 24.625 16.0582 24.7328 15.9915 24.8621C15.947 24.9267 15.9247 24.9698 15.8803 25.0345C15.7468 25.2284 15.6134 25.3793 15.4799 25.5086C14.8349 26.1552 13.9675 26.5 13.0334 26.5Z" fill="url(#paint1_linear_274_1097)"/>
<path d="M3.49187 8.43967C2.55774 8.43967 1.66809 8.09484 1.0231 7.44829C0.35586 6.80174 0 5.96122 0 5.05605C0 4.15087 0.35586 3.31036 1.0231 2.6638C1.69033 2.01725 2.55774 1.67242 3.49187 1.67242C4.42601 1.67242 5.29341 2.01725 5.96065 2.6638C6.62789 3.31036 6.98375 4.15087 6.98375 5.05605C6.98375 5.96122 6.62789 6.82329 5.96065 7.44829C5.31565 8.07329 4.42601 8.43967 3.49187 8.43967Z" fill="#835FF9"/>
<path d="M22.3525 8.33191C21.4184 8.33191 20.5287 7.98708 19.8837 7.34053C18.527 6.02587 18.527 3.8707 19.8837 2.55605C20.551 1.90949 21.4184 1.56467 22.3525 1.56467C23.2867 1.56467 24.1541 1.90949 24.8213 2.55605C26.178 3.8707 26.178 6.02587 24.8213 7.34053C24.1541 7.98708 23.2867 8.33191 22.3525 8.33191Z" fill="#835FF9"/>
<path d="M3.58074 26.5C2.64661 26.5 1.75696 26.1552 1.11196 25.5086C0.444727 24.8621 0.0888672 24.0216 0.0888672 23.1164C0.0888672 22.2112 0.444727 21.3707 1.11196 20.7241C1.24541 20.5948 1.4011 20.4655 1.60127 20.3362C1.66799 20.2931 1.73472 20.25 1.7792 20.2284C1.91265 20.1638 2.0461 20.0991 2.1573 20.0345C2.22403 20.0129 2.29075 19.9698 2.35747 19.9483C2.49092 19.9052 2.62437 19.8621 2.78006 19.819C2.8023 19.819 2.84678 19.7974 2.86902 19.7974C2.89126 19.7974 2.9135 19.7974 2.9135 19.7759L3.69195 19.7328C3.78091 19.7328 3.89212 19.7543 4.00332 19.7543H4.04781C4.07005 19.7543 4.11453 19.7543 4.13677 19.7543H4.15901H4.2035H4.22574C4.29246 19.7543 4.33694 19.7543 4.40367 19.7543C5.73814 19.7543 7.07261 19.194 8.02899 18.2457C8.98536 17.2759 9.51915 15.9828 9.49691 14.6897V14.6466V14.6034C9.49691 14.5603 9.49691 14.5388 9.47467 14.4957C9.47467 14.4526 9.47467 14.4095 9.45243 14.3664V14.2802C9.45243 14.2155 9.43019 14.1509 9.43019 14.0862L9.49691 13.3319C9.49691 13.3103 9.49691 13.2888 9.51915 13.2672L9.54139 13.2241C9.58588 13.0733 9.60812 12.944 9.67484 12.7931C9.69708 12.7069 9.74156 12.6638 9.76381 12.5991C9.83053 12.4698 9.89725 12.3405 9.96398 12.2328C9.98622 12.1897 10.0307 12.125 10.0752 12.0819C10.2086 11.8879 10.3421 11.7371 10.4755 11.6078C11.1428 10.9612 12.0102 10.6164 12.9443 10.6164C13.8784 10.6164 14.7681 10.9612 15.4131 11.6078C16.7698 12.9224 16.7698 15.0776 15.4131 16.3922C15.2796 16.5216 15.1239 16.6509 14.9238 16.7802C14.857 16.8233 14.8126 16.8448 14.7458 16.8879C14.6124 16.9526 14.5012 17.0172 14.3677 17.0819C14.301 17.1034 14.2343 17.1466 14.1676 17.1681C14.0341 17.2112 13.9007 17.2543 13.745 17.2974L13.656 17.319C13.6338 17.319 13.6115 17.3405 13.5893 17.3405L12.8109 17.4052C12.7219 17.4052 12.6329 17.3836 12.5217 17.3836H12.455C12.4328 17.3836 12.3883 17.3836 12.366 17.3836H12.3438H12.2993H12.2771C12.2103 17.3836 12.1659 17.3836 12.0991 17.3836C10.7647 17.3836 9.43019 17.944 8.47381 18.8922C7.51744 19.8621 6.98365 21.1552 7.00589 22.4483V22.4914V22.5345C7.00589 22.5776 7.00589 22.5991 7.02813 22.6422C7.02813 22.6853 7.02813 22.7284 7.05037 22.7716C7.05037 22.7931 7.05037 22.8362 7.07262 22.8793C7.07262 22.9224 7.09486 22.9871 7.09486 23.0302V23.0517L7.02813 23.7845C7.02813 23.806 7.00589 23.8922 6.98365 23.9138C6.93917 24.0647 6.89469 24.2155 6.8502 24.3233C6.82796 24.3879 6.80572 24.4526 6.76124 24.5172C6.69451 24.6466 6.62779 24.7759 6.56107 24.9052C6.53883 24.9483 6.49434 25.0129 6.44986 25.0776C6.31641 25.25 6.18297 25.4224 6.04952 25.5517C5.40452 26.1552 4.51487 26.5 3.58074 26.5Z" fill="#835FF9"/>
<path d="M3.58074 17.3621C2.64661 17.3621 1.7792 16.9957 1.11196 16.3707C0.444727 15.7241 0.0888672 14.8836 0.0888672 13.9785C0.0888672 13.0733 0.444727 12.2328 1.11196 11.5862C1.24541 11.4569 1.4011 11.3276 1.60127 11.1983C1.64575 11.1552 1.71248 11.1336 1.7792 11.0905C1.89041 11.0259 2.02385 10.9612 2.1573 10.8966C2.22403 10.875 2.29075 10.8319 2.35747 10.8103C2.49092 10.7672 2.62437 10.7241 2.78006 10.7026L2.86902 10.681C2.89126 10.681 2.89126 10.681 2.9135 10.6595L3.71419 10.5948C3.8254 10.5948 3.9366 10.6164 4.04781 10.6379H4.07005C4.11453 10.6379 4.13677 10.6379 4.18125 10.6379C4.2035 10.6379 4.2035 10.6379 4.22574 10.6379H4.27022H4.29246C4.35918 10.6379 4.40367 10.6379 4.47039 10.6379C5.80486 10.6379 7.13934 10.0776 8.09571 9.12931C9.05209 8.15948 9.58588 6.86638 9.54139 5.57328V5.53017V5.48707C9.54139 5.44397 9.54139 5.40086 9.51915 5.35776C9.51915 5.31466 9.51915 5.2931 9.51915 5.25L9.49691 5.16379C9.49691 5.09914 9.47467 5.03448 9.47467 4.96983L9.51915 4.25862V4.23707V4.21552C9.51915 4.19397 9.54139 4.10776 9.54139 4.10776C9.58588 3.93535 9.63036 3.78448 9.67484 3.67672C9.69708 3.61207 9.74156 3.54741 9.76381 3.48276C9.83053 3.35345 9.89725 3.24569 9.96398 3.11638L9.98622 3.09483C10.0085 3.07328 10.0529 3.00862 10.0752 2.96552C10.2086 2.77155 10.3421 2.62069 10.4755 2.49138C11.1428 1.84483 12.0102 1.5 12.9443 1.5C13.8784 1.5 14.7681 1.84483 15.4131 2.49138C16.7698 3.80604 16.7698 5.96121 15.4131 7.27586C15.2796 7.40517 15.1239 7.53448 14.9238 7.66379C14.8793 7.7069 14.8348 7.72845 14.7681 7.75L14.7458 7.77155C14.6124 7.83621 14.5012 7.90086 14.3677 7.96552C14.301 7.98707 14.2343 8.03017 14.1676 8.05173C14.0341 8.09483 13.9007 8.13793 13.745 8.18104C13.7227 8.18104 13.6783 8.20259 13.656 8.20259C13.6338 8.20259 13.6115 8.20259 13.6115 8.22414L12.8331 8.26724C12.7441 8.26724 12.6329 8.24569 12.5217 8.24569H12.4772C12.4328 8.24569 12.4105 8.24569 12.366 8.24569C12.3438 8.24569 12.3438 8.24569 12.3215 8.24569H12.2993H12.2548C12.1881 8.24569 12.1436 8.24569 12.0769 8.24569C10.7424 8.24569 9.40794 8.80604 8.45157 9.75431C7.4952 10.7241 6.96141 12.0172 6.98365 13.3103V13.3535V13.3966C6.98365 13.4397 6.98365 13.4828 7.00589 13.5043C7.00589 13.5474 7.00589 13.5905 7.00589 13.6336C7.00589 13.6552 7.00589 13.6983 7.02813 13.7414C7.02813 13.806 7.05037 13.8491 7.05037 13.9138L6.98365 14.6466C6.98365 14.6681 6.98365 14.6897 6.96141 14.7112L6.93917 14.7759C6.89469 14.9483 6.8502 15.0776 6.80572 15.2069C6.78348 15.2716 6.739 15.3362 6.71676 15.4009C6.65003 15.5302 6.58331 15.6379 6.51658 15.7672C6.4721 15.8319 6.44986 15.875 6.40538 15.9397C6.27193 16.1336 6.13848 16.2845 6.00504 16.4138C5.40452 16.9957 4.51487 17.3621 3.58074 17.3621Z" fill="#835FF9"/>
</g>
<path d="M51.29 25.5V4.5H55.19V25.5H51.29ZM37.82 25.5V4.5H41.72V25.5H37.82ZM39.44 16.86V13.2H53.18V16.86H39.44ZM66.9973 25.8C65.3373 25.8 63.8673 25.45 62.5873 24.75C61.3273 24.05 60.3373 23.1 59.6173 21.9C58.9173 20.68 58.5673 19.29 58.5673 17.73C58.5673 16.49 58.7673 15.36 59.1673 14.34C59.5673 13.32 60.1173 12.44 60.8173 11.7C61.5373 10.94 62.3873 10.36 63.3673 9.96C64.3673 9.54 65.4573 9.33 66.6373 9.33C67.6773 9.33 68.6473 9.53 69.5473 9.93C70.4473 10.33 71.2273 10.88 71.8873 11.58C72.5473 12.26 73.0473 13.08 73.3873 14.04C73.7473 14.98 73.9173 16.01 73.8973 17.13L73.8673 18.42H61.0573L60.3673 15.9H70.7773L70.2973 16.41V15.75C70.2373 15.13 70.0373 14.59 69.6973 14.13C69.3573 13.65 68.9173 13.28 68.3773 13.02C67.8573 12.74 67.2773 12.6 66.6373 12.6C65.6573 12.6 64.8273 12.79 64.1473 13.17C63.4873 13.55 62.9873 14.1 62.6473 14.82C62.3073 15.52 62.1373 16.4 62.1373 17.46C62.1373 18.48 62.3473 19.37 62.7673 20.13C63.2073 20.89 63.8173 21.48 64.5973 21.9C65.3973 22.3 66.3273 22.5 67.3873 22.5C68.1273 22.5 68.8073 22.38 69.4273 22.14C70.0473 21.9 70.7173 21.47 71.4373 20.85L73.2673 23.4C72.7273 23.9 72.1073 24.33 71.4073 24.69C70.7273 25.03 70.0073 25.3 69.2473 25.5C68.4873 25.7 67.7373 25.8 66.9973 25.8ZM76.5955 25.5V3.3H80.3155V25.5H76.5955ZM89.7284 25.8C88.4284 25.8 87.2484 25.44 86.1884 24.72C85.1284 24 84.2784 23.02 83.6384 21.78C82.9984 20.54 82.6784 19.13 82.6784 17.55C82.6784 15.97 82.9984 14.56 83.6384 13.32C84.2784 12.08 85.1484 11.11 86.2484 10.41C87.3484 9.71 88.5884 9.36 89.9684 9.36C90.7684 9.36 91.4984 9.48 92.1584 9.72C92.8184 9.94 93.3984 10.26 93.8984 10.68C94.3984 11.1 94.8084 11.58 95.1284 12.12C95.4684 12.66 95.6984 13.24 95.8184 13.86L95.0084 13.65V9.69H98.7284V25.5H94.9784V21.72L95.8484 21.57C95.7084 22.11 95.4484 22.64 95.0684 23.16C94.7084 23.66 94.2484 24.11 93.6884 24.51C93.1484 24.89 92.5384 25.2 91.8584 25.44C91.1984 25.68 90.4884 25.8 89.7284 25.8ZM90.7484 22.53C91.6084 22.53 92.3684 22.32 93.0284 21.9C93.6884 21.48 94.1984 20.9 94.5584 20.16C94.9384 19.4 95.1284 18.53 95.1284 17.55C95.1284 16.59 94.9384 15.74 94.5584 15C94.1984 14.26 93.6884 13.68 93.0284 13.26C92.3684 12.84 91.6084 12.63 90.7484 12.63C89.8884 12.63 89.1284 12.84 88.4684 13.26C87.8284 13.68 87.3284 14.26 86.9684 15C86.6084 15.74 86.4284 16.59 86.4284 17.55C86.4284 18.53 86.6084 19.4 86.9684 20.16C87.3284 20.9 87.8284 21.48 88.4684 21.9C89.1284 22.32 89.8884 22.53 90.7484 22.53ZM112.636 25.5L108.136 19.41L107.296 18.27L100.786 9.69H105.346L109.726 15.63L110.656 16.89L117.106 25.5H112.636ZM100.756 25.5L107.026 17.1L109.126 19.62L105.106 25.5H100.756ZM110.656 18.12L108.646 15.63L112.276 9.69H116.626L110.656 18.12Z" fill="white"/>
<defs>
<linearGradient id="paint0_linear_274_1097" x1="19.0413" y1="23.1163" x2="26.3933" y2="23.1163" gradientUnits="userSpaceOnUse">
<stop stop-color="#331C9C"/>
<stop offset="1" stop-color="#9066FB"/>
</linearGradient>
<linearGradient id="paint1_linear_274_1097" x1="9.59987" y1="18.5686" x2="26.8171" y2="18.5686" gradientUnits="userSpaceOnUse">
<stop stop-color="#331C9C"/>
<stop offset="1" stop-color="#9066FB"/>
</linearGradient>
<clipPath id="clip0_274_1097">
<rect width="26" height="25" fill="white" transform="translate(0 1.5)"/>
</clipPath>
</defs>
</svg>
